<svg width="24" height="22" viewBox="0 0 24 22" fill="none" xmlns="http://www.w3.org/2000/svg">
<mask id="path-1-inside-1_211_2339" fill="white">
<path d="M15.0112 10.7646C14.8436 10.7646 14.688 10.7185 14.5497 10.6444V10.6464C14.5497 10.9101 14.4472 11.1577 14.2613 11.3432C14.0753 11.5292 13.8279 11.6317 13.5645 11.6317C13.3944 11.6317 13.2368 11.5844 13.0971 11.5083C13.083 11.7496 12.9865 11.9751 12.8145 12.1473C12.6285 12.3332 12.3811 12.4357 12.1175 12.4357C11.5939 12.4357 11.1686 12.0241 11.138 11.5082C10.976 11.5957 10.7928 11.6417 10.6039 11.6295C10.0887 11.5957 9.68534 11.1507 9.68534 10.616V6.18441L9.18071 7.05865C8.98851 7.39303 8.62873 7.60064 8.24136 7.60064C8.05261 7.60064 7.86615 7.55111 7.70101 7.45649C7.49537 7.33727 7.34827 7.14589 7.28709 6.91693C7.2256 6.68784 7.25741 6.44825 7.3763 6.24291C7.37647 6.24291 9.02738 3.38402 9.12809 3.2084C9.14006 3.182 9.17418 3.10542 9.2032 3.04015C9.23092 2.97783 9.2547 2.91388 9.27749 2.84959C9.77535 1.44403 11.0081 0.570927 12.4949 0.570927C14.4255 0.570927 15.9963 2.27414 15.9963 4.3677L15.9964 9.77919C15.9964 10.0426 15.8941 10.29 15.7083 10.4762C15.5223 10.6621 15.2749 10.7646 15.0112 10.7646L15.0112 10.7646ZM12.4949 1.09447C11.2174 1.09447 10.1991 1.81606 9.77096 3.02468C9.74358 3.10143 9.71504 3.17817 9.68175 3.25296C9.58516 3.46959 9.58516 3.46959 9.55794 3.50075L9.55433 3.49763C9.41953 3.75198 9.01906 4.4455 7.82962 6.50493C7.78075 6.58939 7.76779 6.68746 7.79272 6.78126C7.81798 6.87506 7.87849 6.95411 7.96229 7.00248C8.22238 7.15188 8.57859 7.05545 8.72683 6.79717L9.72046 5.07687C9.77983 4.97437 9.89987 4.92403 10.015 4.95519C10.1295 4.98585 10.209 5.08966 10.209 5.20806V10.6162C10.209 10.8714 10.4015 11.0916 10.6382 11.1072C10.7746 11.1144 10.9019 11.0686 10.9975 10.9732C11.0844 10.8863 11.1323 10.7705 11.1323 10.6467V7.10969C11.1323 6.96505 11.2495 6.8478 11.3942 6.8478C11.5388 6.8478 11.6561 6.96489 11.6561 7.10969L11.6559 11.4506C11.6559 11.7052 11.863 11.9123 12.1175 11.9123C12.2412 11.9123 12.3573 11.8644 12.4444 11.7775C12.5313 11.6904 12.5792 11.5743 12.5792 11.4506V7.10969C12.5792 6.96505 12.6963 6.84779 12.8411 6.84779C12.9857 6.84779 13.103 6.96489 13.103 7.10969L13.1028 10.606V10.6467C13.1028 10.901 13.3099 11.1081 13.5646 11.1081C13.6881 11.1081 13.8039 11.0601 13.8915 10.9728C13.9784 10.8861 14.0263 10.7703 14.0263 10.6465V7.10951C14.0263 6.96487 14.1434 6.84761 14.2882 6.84761C14.4328 6.84761 14.5501 6.9647 14.5501 7.10951L14.5497 9.77932C14.5497 10.034 14.7568 10.2411 15.0112 10.2411C15.135 10.2411 15.2508 10.1931 15.3377 10.1063C15.4249 10.0191 15.4727 9.90297 15.4727 9.77932L15.4728 4.36783C15.4728 2.5631 14.137 1.09452 12.4949 1.09452L12.4949 1.09447Z"/>
</mask>
<path d="M15.0112 10.7646C14.8436 10.7646 14.688 10.7185 14.5497 10.6444V10.6464C14.5497 10.9101 14.4472 11.1577 14.2613 11.3432C14.0753 11.5292 13.8279 11.6317 13.5645 11.6317C13.3944 11.6317 13.2368 11.5844 13.0971 11.5083C13.083 11.7496 12.9865 11.9751 12.8145 12.1473C12.6285 12.3332 12.3811 12.4357 12.1175 12.4357C11.5939 12.4357 11.1686 12.0241 11.138 11.5082C10.976 11.5957 10.7928 11.6417 10.6039 11.6295C10.0887 11.5957 9.68534 11.1507 9.68534 10.616V6.18441L9.18071 7.05865C8.98851 7.39303 8.62873 7.60064 8.24136 7.60064C8.05261 7.60064 7.86615 7.55111 7.70101 7.45649C7.49537 7.33727 7.34827 7.14589 7.28709 6.91693C7.2256 6.68784 7.25741 6.44825 7.3763 6.24291C7.37647 6.24291 9.02738 3.38402 9.12809 3.2084C9.14006 3.182 9.17418 3.10542 9.2032 3.04015C9.23092 2.97783 9.2547 2.91388 9.27749 2.84959C9.77535 1.44403 11.0081 0.570927 12.4949 0.570927C14.4255 0.570927 15.9963 2.27414 15.9963 4.3677L15.9964 9.77919C15.9964 10.0426 15.8941 10.29 15.7083 10.4762C15.5223 10.6621 15.2749 10.7646 15.0112 10.7646L15.0112 10.7646ZM12.4949 1.09447C11.2174 1.09447 10.1991 1.81606 9.77096 3.02468C9.74358 3.10143 9.71504 3.17817 9.68175 3.25296C9.58516 3.46959 9.58516 3.46959 9.55794 3.50075L9.55433 3.49763C9.41953 3.75198 9.01906 4.4455 7.82962 6.50493C7.78075 6.58939 7.76779 6.68746 7.79272 6.78126C7.81798 6.87506 7.87849 6.95411 7.96229 7.00248C8.22238 7.15188 8.57859 7.05545 8.72683 6.79717L9.72046 5.07687C9.77983 4.97437 9.89987 4.92403 10.015 4.95519C10.1295 4.98585 10.209 5.08966 10.209 5.20806V10.6162C10.209 10.8714 10.4015 11.0916 10.6382 11.1072C10.7746 11.1144 10.9019 11.0686 10.9975 10.9732C11.0844 10.8863 11.1323 10.7705 11.1323 10.6467V7.10969C11.1323 6.96505 11.2495 6.8478 11.3942 6.8478C11.5388 6.8478 11.6561 6.96489 11.6561 7.10969L11.6559 11.4506C11.6559 11.7052 11.863 11.9123 12.1175 11.9123C12.2412 11.9123 12.3573 11.8644 12.4444 11.7775C12.5313 11.6904 12.5792 11.5743 12.5792 11.4506V7.10969C12.5792 6.96505 12.6963 6.84779 12.8411 6.84779C12.9857 6.84779 13.103 6.96489 13.103 7.10969L13.1028 10.606V10.6467C13.1028 10.901 13.3099 11.1081 13.5646 11.1081C13.6881 11.1081 13.8039 11.0601 13.8915 10.9728C13.9784 10.8861 14.0263 10.7703 14.0263 10.6465V7.10951C14.0263 6.96487 14.1434 6.84761 14.2882 6.84761C14.4328 6.84761 14.5501 6.9647 14.5501 7.10951L14.5497 9.77932C14.5497 10.034 14.7568 10.2411 15.0112 10.2411C15.135 10.2411 15.2508 10.1931 15.3377 10.1063C15.4249 10.0191 15.4727 9.90297 15.4727 9.77932L15.4728 4.36783C15.4728 2.5631 14.137 1.09452 12.4949 1.09452L12.4949 1.09447Z" fill="#4CAF4F"/>
<path d="M15.0112 10.7646V9.83653H18.2902L15.4976 11.555L15.0112 10.7646ZM14.5497 10.6444H13.6216V9.09368L14.9883 9.82649L14.5497 10.6444ZM14.2613 11.3432L13.605 10.6869L13.6059 10.6861L14.2613 11.3432ZM13.0971 11.5083L12.1706 11.4542L12.256 9.99351L13.5409 10.6933L13.0971 11.5083ZM12.8145 12.1473L13.4711 12.8032L13.4708 12.8035L12.8145 12.1473ZM11.138 11.5082L10.6967 10.6917L11.9781 9.99916L12.0645 11.4531L11.138 11.5082ZM10.6039 11.6295L10.5444 12.5557L10.5431 12.5556L10.6039 11.6295ZM9.68534 6.18441L8.88154 5.72045L10.6134 2.72004V6.18441H9.68534ZM9.18071 7.05865L8.37607 6.59615L8.37691 6.59468L9.18071 7.05865ZM7.70101 7.45649L7.23959 8.26176L7.23553 8.25941L7.70101 7.45649ZM7.28709 6.91693L8.18346 6.67633L8.18373 6.67737L7.28709 6.91693ZM7.3763 6.24291L6.57314 5.77785L6.84125 5.31482H7.3763V6.24291ZM9.12809 3.2084L9.97335 3.59166L9.95513 3.63185L9.93318 3.67013L9.12809 3.2084ZM9.2032 3.04015L8.35519 2.66302L8.35519 2.66301L9.2032 3.04015ZM9.27749 2.84959L10.1523 3.15946L10.1522 3.15972L9.27749 2.84959ZM15.9963 4.3677L15.0682 4.36773V4.3677H15.9963ZM15.9964 9.77919L16.9245 9.77916V9.77919H15.9964ZM15.7083 10.4762L16.3652 11.1318L16.3645 11.1324L15.7083 10.4762ZM15.0112 10.7646V11.6927H11.7322L14.5248 9.97422L15.0112 10.7646ZM12.4949 1.09447V0.166377H13.7253L13.3873 1.34944L12.4949 1.09447ZM9.77096 3.02468L10.6458 3.3346L10.6451 3.3366L9.77096 3.02468ZM9.68175 3.25296L10.5296 3.63041L10.5294 3.6309L9.68175 3.25296ZM9.55794 3.50075L10.2568 4.1114L9.64969 4.80629L8.95132 4.20315L9.55794 3.50075ZM9.55433 3.49763L8.73428 3.06303L9.2796 2.03407L10.1609 2.79523L9.55433 3.49763ZM7.82962 6.50493L8.6333 6.9691L8.63292 6.96977L7.82962 6.50493ZM7.79272 6.78126L6.89654 7.02254L6.89577 7.01964L7.79272 6.78126ZM7.96229 7.00248L7.50003 7.80726L7.49829 7.80626L7.96229 7.00248ZM8.72683 6.79717L7.92188 6.33518L7.92316 6.33297L8.72683 6.79717ZM9.72046 5.07687L8.91679 4.61268L8.91736 4.6117L9.72046 5.07687ZM10.015 4.95519L9.77482 5.85167L9.77252 5.85105L10.015 4.95519ZM10.6382 11.1072L10.5892 12.034L10.5772 12.0333L10.6382 11.1072ZM10.9975 10.9732L11.6537 11.6295L11.6532 11.63L10.9975 10.9732ZM11.6561 7.10969H12.5842V7.10973L11.6561 7.10969ZM11.6559 11.4506H10.7278V11.4506L11.6559 11.4506ZM12.4444 11.7775L13.1013 12.4331L13.1 12.4344L12.4444 11.7775ZM13.103 7.10969H14.0311V7.10973L13.103 7.10969ZM13.1028 10.606H12.1747V10.606L13.1028 10.606ZM13.8915 10.9728L14.5471 11.6297L14.5465 11.6303L13.8915 10.9728ZM14.5501 7.10951H15.4781V7.10962L14.5501 7.10951ZM14.5497 9.77932H13.6216V9.7792L14.5497 9.77932ZM15.3377 10.1063L15.994 10.7626L15.9933 10.7632L15.3377 10.1063ZM15.4727 9.77932H14.5446V9.77929L15.4727 9.77932ZM15.4728 4.36783H16.4009V4.36785L15.4728 4.36783ZM12.4949 1.09452V2.02262H11.2645L11.6025 0.839557L12.4949 1.09452ZM15.0112 11.6927C14.6695 11.6927 14.3644 11.5981 14.1112 11.4623L14.9883 9.82649C15.0003 9.83291 15.0079 9.83537 15.0109 9.83619C15.0135 9.83689 15.0132 9.83653 15.0112 9.83653V11.6927ZM15.4778 10.6444V10.6464H13.6216V10.6444H15.4778ZM15.4778 10.6464C15.4778 11.1555 15.2781 11.6399 14.9167 12.0003L13.6059 10.6861C13.6125 10.6795 13.6158 10.6738 13.6177 10.6692C13.6196 10.6645 13.6216 10.6574 13.6216 10.6464H15.4778ZM14.9175 11.9995C14.5574 12.3596 14.0738 12.5598 13.5645 12.5598V10.7036C13.5751 10.7036 13.5821 10.7016 13.5869 10.6997C13.5916 10.6977 13.5978 10.6942 13.605 10.6869L14.9175 11.9995ZM13.5645 12.5598C13.2183 12.5598 12.9093 12.4629 12.6532 12.3234L13.5409 10.6933C13.553 10.6999 13.5607 10.7024 13.5637 10.7032C13.5663 10.7039 13.5661 10.7036 13.5645 10.7036V12.5598ZM14.0236 11.5625C13.9969 12.0193 13.8116 12.4624 13.4711 12.8032L12.1579 11.4914C12.1614 11.4879 12.1633 11.4849 12.165 11.481C12.1669 11.4768 12.1697 11.4683 12.1706 11.4542L14.0236 11.5625ZM13.4708 12.8035C13.1105 13.1638 12.6269 13.3638 12.1175 13.3638V11.5076C12.1283 11.5076 12.1354 11.5057 12.1401 11.5037C12.1449 11.5017 12.151 11.4983 12.1583 11.491L13.4708 12.8035ZM12.1175 13.3638C11.0929 13.3638 10.2707 12.5597 10.2115 11.5632L12.0645 11.4531C12.0654 11.4689 12.0719 11.4828 12.0833 11.4937C12.0889 11.499 12.0945 11.5024 12.0994 11.5044C12.1037 11.5062 12.1092 11.5076 12.1175 11.5076V13.3638ZM11.5793 12.3247C11.2795 12.4867 10.9241 12.5801 10.5444 12.5557L10.6634 10.7033C10.6634 10.7033 10.6654 10.7035 10.6703 10.7024C10.6755 10.7012 10.6846 10.6983 10.6967 10.6917L11.5793 12.3247ZM10.5431 12.5556C9.51264 12.4881 8.75724 11.6117 8.75724 10.616H10.6134C10.6134 10.6474 10.6248 10.6716 10.6391 10.6873C10.653 10.7027 10.6625 10.7033 10.6646 10.7034L10.5431 12.5556ZM8.75724 10.616V6.18441H10.6134V10.616H8.75724ZM10.4891 6.64838L9.98451 7.52261L8.37691 6.59468L8.88154 5.72045L10.4891 6.64838ZM9.98535 7.52115C9.62673 8.14507 8.95919 8.52873 8.24136 8.52873V6.67254C8.29827 6.67254 8.3503 6.64099 8.37607 6.59615L9.98535 7.52115ZM8.24136 8.52873C7.89039 8.52873 7.54491 8.4367 7.23959 8.26175L8.16243 6.65122C8.18739 6.66553 8.21482 6.67254 8.24136 6.67254V8.52873ZM7.23553 8.25941C6.81884 8.01784 6.51555 7.62472 6.39045 7.1565L8.18373 6.67737C8.18289 6.6742 8.18057 6.6686 8.1761 6.66278C8.17167 6.65699 8.16756 6.65419 8.1665 6.65357L7.23553 8.25941ZM6.39073 7.15754C6.26514 6.68968 6.33089 6.19622 6.57314 5.77785L8.17947 6.70797C8.18079 6.70569 8.18311 6.70039 8.18411 6.69289C8.1851 6.68537 8.18427 6.67937 8.18345 6.67633L6.39073 7.15754ZM7.3763 5.31482C6.92104 5.43415 6.58028 5.76574 6.57773 5.77002C6.57688 5.77145 6.57562 5.77359 6.57522 5.77428C6.57499 5.77468 6.57459 5.77535 6.57446 5.77558C6.57438 5.77573 6.57421 5.77602 6.57416 5.77609C6.57403 5.77631 6.57407 5.77624 6.57442 5.77564C6.57506 5.77455 6.57611 5.77272 6.57765 5.77006C6.5807 5.76479 6.58528 5.75686 6.59133 5.74639C6.60342 5.72548 6.62117 5.69475 6.64384 5.6555C6.68918 5.57702 6.75405 5.46469 6.83223 5.32932C6.98858 5.05859 7.19809 4.69576 7.41075 4.32745C7.83677 3.58959 8.27353 2.83294 8.323 2.74668L9.93318 3.67013C9.88193 3.75948 9.44289 4.52008 9.01823 5.25557C8.80555 5.62394 8.59601 5.98681 8.43962 6.25761C8.36143 6.393 8.29652 6.50539 8.25114 6.58395C8.22846 6.62322 8.21063 6.65407 8.19846 6.67513C8.19239 6.68564 8.18768 6.69379 8.18446 6.69935C8.18287 6.7021 8.18156 6.70438 8.18059 6.70604C8.18015 6.70681 8.17959 6.70778 8.17905 6.70869C8.17886 6.70903 8.17826 6.71006 8.17755 6.71128C8.17709 6.71205 8.17579 6.71427 8.17492 6.71574C8.17235 6.72006 7.83157 7.05167 7.3763 7.171V5.31482ZM8.28283 2.82515C8.29304 2.80261 8.32541 2.72997 8.35519 2.66302L10.0512 3.41728C10.0229 3.48087 9.98708 3.56139 9.97335 3.59166L8.28283 2.82515ZM8.35519 2.66301C8.36809 2.63401 8.38236 2.59695 8.40275 2.53946L10.1522 3.15972C10.127 3.23081 10.0937 3.32165 10.0512 3.41729L8.35519 2.66301ZM8.40266 2.53971C9.03125 0.765098 10.6134 -0.357166 12.4949 -0.357166V1.49902C11.4028 1.49902 10.5195 2.12296 10.1523 3.15946L8.40266 2.53971ZM12.4949 -0.357166C15.0075 -0.357166 16.9244 1.83377 16.9244 4.3677H15.0682C15.0682 2.71451 13.8436 1.49902 12.4949 1.49902V-0.357166ZM16.9244 4.36767L16.9245 9.77916L15.0683 9.77922L15.0682 4.36773L16.9244 4.36767ZM16.9245 9.77919C16.9245 10.2881 16.7248 10.7715 16.3652 11.1318L15.0514 9.82053C15.0588 9.81318 15.0623 9.80693 15.0643 9.80205C15.0664 9.79717 15.0683 9.79001 15.0683 9.77919H16.9245ZM16.3645 11.1324C16.0043 11.4927 15.5207 11.6927 15.0112 11.6927V9.83655C15.0221 9.83655 15.0292 9.83457 15.0339 9.83261C15.0387 9.83065 15.0448 9.82716 15.052 9.81992L16.3645 11.1324ZM14.5248 9.97422L14.5248 9.9742L15.4976 11.555L15.4976 11.5551L14.5248 9.97422ZM12.4949 2.02256C11.6125 2.02256 10.9434 2.4946 10.6458 3.3346L8.89615 2.71476C9.45491 1.13751 10.8223 0.166377 12.4949 0.166377V2.02256ZM10.6451 3.3366C10.6158 3.4187 10.5777 3.52238 10.5296 3.63041L8.83388 2.8755C8.85237 2.83397 8.87138 2.78416 8.89686 2.71276L10.6451 3.3366ZM10.5294 3.6309C10.4869 3.72622 10.4513 3.80672 10.424 3.86125C10.4071 3.89509 10.3798 3.94725 10.3401 4.00502C10.2998 4.06355 10.2601 4.1077 10.2568 4.1114L8.85904 2.89009C8.86122 2.8876 8.8605 2.88841 8.8594 2.88969C8.85799 2.89134 8.85438 2.89554 8.84965 2.90131C8.84475 2.90729 8.83857 2.915 8.83162 2.92418C8.82459 2.93344 8.81745 2.94329 8.81031 2.95368C8.79577 2.97484 8.78457 2.99337 8.77661 3.00739C8.76918 3.02047 8.76463 3.02953 8.76361 3.03157C8.76256 3.03367 8.76322 3.03243 8.76637 3.02568C8.76943 3.01914 8.77375 3.00972 8.77996 2.996C8.78612 2.9824 8.79349 2.96599 8.80256 2.94569C8.81162 2.92543 8.82197 2.90222 8.8341 2.87501L10.5294 3.6309ZM8.95132 4.20315L8.94771 4.20003L10.1609 2.79523L10.1646 2.79835L8.95132 4.20315ZM10.3744 3.93223C10.2291 4.20631 9.81444 4.92404 8.6333 6.9691L7.02594 6.04076C8.22368 3.96697 8.60994 3.29766 8.73428 3.06303L10.3744 3.93223ZM8.63292 6.96977C8.70718 6.84144 8.72788 6.6866 8.68968 6.54288L6.89577 7.01964C6.80771 6.68832 6.85432 6.33734 7.02633 6.0401L8.63292 6.96977ZM8.6889 6.53998C8.65071 6.39813 8.55685 6.27407 8.42629 6.19871L7.49829 7.80626C7.20014 7.63414 6.98524 7.352 6.89654 7.02254L8.6889 6.53998ZM8.42456 6.19771C8.31892 6.13703 8.21617 6.13743 8.14522 6.15653C8.07454 6.17556 7.98392 6.2271 7.92189 6.33519L9.53177 7.25915C9.12729 7.96391 8.20289 8.21099 7.50003 7.80726L8.42456 6.19771ZM7.92316 6.33297L8.91679 4.61268L10.5241 5.54106L9.5305 7.26136L7.92316 6.33297ZM8.91736 4.6117C9.18543 4.14888 9.73259 3.91727 10.2575 4.05933L9.77252 5.85105C10.0671 5.93079 10.3742 5.79986 10.5236 5.54204L8.91736 4.6117ZM10.2552 4.05871C10.7758 4.1982 11.1371 4.67004 11.1371 5.20806H9.2809C9.2809 5.50928 9.48308 5.77351 9.77482 5.85167L10.2552 4.05871ZM11.1371 5.20806V10.6162H9.2809V5.20806H11.1371ZM11.1371 10.6162C11.1371 10.5104 11.0979 10.4143 11.0336 10.3407C10.9694 10.2673 10.8561 10.1914 10.6991 10.1811L10.5772 12.0333C9.79595 11.9818 9.2809 11.3013 9.2809 10.6162H11.1371ZM10.6872 10.1804C10.5775 10.1746 10.4436 10.2147 10.3418 10.3164L11.6532 11.63C11.3602 11.9225 10.9717 12.0542 10.5892 12.034L10.6872 10.1804ZM10.3412 10.3169C10.2531 10.405 10.2042 10.5257 10.2042 10.6467H12.0604C12.0604 11.0153 11.9157 11.3675 11.6537 11.6295L10.3412 10.3169ZM10.2042 10.6467V7.10969H12.0604V10.6467H10.2042ZM10.2042 7.10969C10.2042 6.45248 10.737 5.9197 11.3942 5.9197V7.77589C11.7621 7.77589 12.0604 7.47763 12.0604 7.10969H10.2042ZM11.3942 5.9197C12.051 5.9197 12.5842 6.45195 12.5842 7.10969H10.728C10.728 7.47783 11.0266 7.77589 11.3942 7.77589V5.9197ZM12.5842 7.10973L12.584 11.4507L10.7278 11.4506L10.728 7.10966L12.5842 7.10973ZM12.584 11.4506C12.584 11.1926 12.3756 10.9842 12.1175 10.9842V12.8404C11.3505 12.8404 10.7278 12.2177 10.7278 11.4506H12.584ZM12.1175 10.9842C11.9968 10.9842 11.8767 11.0329 11.7888 11.1206L13.1 12.4344C12.8379 12.6959 12.4856 12.8404 12.1175 12.8404V10.9842ZM11.7875 11.1218C11.6998 11.2097 11.6511 11.3299 11.6511 11.4506H13.5073C13.5073 11.8187 13.3628 12.171 13.1013 12.4331L11.7875 11.1218ZM11.6511 11.4506V7.10969H13.5073V11.4506H11.6511ZM11.6511 7.10969C11.6511 6.45286 12.1833 5.9197 12.8411 5.9197V7.77589C13.2092 7.77589 13.5073 7.47724 13.5073 7.10969H11.6511ZM12.8411 5.9197C13.4979 5.9197 14.0311 6.45194 14.0311 7.10969H12.1749C12.1749 7.47784 12.4735 7.77589 12.8411 7.77589V5.9197ZM14.0311 7.10973L14.0309 10.606L12.1747 10.606L12.1749 7.10965L14.0311 7.10973ZM14.0309 10.606V10.6467H12.1747V10.606H14.0309ZM14.0309 10.6467C14.0309 10.388 13.8221 10.18 13.5646 10.18V12.0362C12.7978 12.0362 12.1747 11.414 12.1747 10.6467H14.0309ZM13.5646 10.18C13.4413 10.18 13.3219 10.2302 13.2364 10.3154L14.5465 11.6303C14.2859 11.89 13.9349 12.0362 13.5646 12.0362V10.18ZM13.2358 10.316C13.147 10.4046 13.0982 10.5257 13.0982 10.6465H14.9544C14.9544 11.015 14.8097 11.3676 14.5471 11.6297L13.2358 10.316ZM13.0982 10.6465V7.10951H14.9544V10.6465H13.0982ZM13.0982 7.10951C13.0982 6.45267 13.6304 5.91952 14.2882 5.91952V7.7757C14.6563 7.7757 14.9544 7.47707 14.9544 7.10951H13.0982ZM14.2882 5.91952C14.945 5.91952 15.4781 6.45175 15.4781 7.10951H13.622C13.622 7.47765 13.9206 7.7757 14.2882 7.7757V5.91952ZM15.4781 7.10962L15.4778 9.77943L13.6216 9.7792L13.622 7.10939L15.4781 7.10962ZM15.4778 9.77932C15.4778 9.52186 15.2699 9.31303 15.0112 9.31303V11.1692C14.2438 11.1692 13.6216 10.5461 13.6216 9.77932H15.4778ZM15.0112 9.31303C14.8894 9.31303 14.7693 9.36232 14.6821 9.44944L15.9933 10.7632C15.7322 11.0238 15.3806 11.1692 15.0112 11.1692V9.31303ZM14.6814 9.45006C14.5931 9.53843 14.5446 9.65905 14.5446 9.77932H16.4008C16.4008 10.1469 16.2568 10.4997 15.994 10.7626L14.6814 9.45006ZM14.5446 9.77929L14.5447 4.3678L16.4009 4.36785L16.4008 9.77934L14.5446 9.77929ZM14.5447 4.36783C14.5447 2.99109 13.5437 2.02262 12.4949 2.02262V0.16643C14.7302 0.16643 16.4009 2.13511 16.4009 4.36783H14.5447ZM11.6025 0.839557L11.6025 0.839503L13.3873 1.34944L13.3873 1.34949L11.6025 0.839557Z" fill="#4CAF4F" mask="url(#path-1-inside-1_211_2339)"/>
<path d="M6.52862 15.7395C6.40432 15.8143 6.2436 15.774 6.16932 15.6498C6.09486 15.5259 6.1352 15.365 6.25902 15.2905M6.52862 15.7395L8.79123 12.695C9.00983 12.5637 9.29812 12.6155 9.43292 12.8105M6.52862 15.7395L9.56149 13.92H9.56166L9.56198 13.9199M6.52862 15.7395L10.726 14.2982C10.8319 14.2346 10.9067 14.1339 10.9366 14.0143M6.25902 15.2905L9.29206 13.471C9.39799 13.4074 9.47294 13.3065 9.50278 13.1873M6.25902 15.2905L6.28972 15.3417L6.39372 15.5151L6.39393 15.5154L6.44079 15.5935L6.49774 15.6885L6.49785 15.6884L6.49792 15.6884L6.49815 15.6882M6.25902 15.2905L6.28978 15.3417M9.50278 13.1873C9.53558 13.0565 9.51066 12.9226 9.43292 12.8105M9.50278 13.1873L9.57764 13.2061L9.57049 13.0522C9.56557 12.9463 9.53458 12.8523 9.48217 12.7767L9.48202 12.7765L9.43292 12.8105M9.50278 13.1873L9.57764 13.2061L9.58502 13.3649L9.43318 13.456H9.43297L9.32276 13.5221L9.32274 13.5221L9.32272 13.5221L6.28989 15.3416M9.43292 12.8105L9.48199 12.7765L7.24267 16.929C7.3379 16.8717 7.36939 16.7478 7.31165 16.6517C7.2544 16.5563 7.13013 16.525 7.03442 16.5823L10.0673 14.7629C10.137 14.7211 10.21 14.6895 10.2846 14.6678L10.755 14.3466L10.755 14.3465L10.7809 14.3289C10.8913 14.2535 10.9643 14.1491 10.9943 14.0289L10.9943 14.0288L10.9366 14.0143M6.28989 15.3416C6.38534 15.2846 6.50957 15.3155 6.56714 15.4109C6.56726 15.4111 6.56739 15.4114 6.56751 15.4116C6.62474 15.5076 6.59318 15.6311 6.49815 15.6882M6.28989 15.3416C6.28986 15.3416 6.28982 15.3417 6.28978 15.3417M6.28989 15.3416L6.28978 15.3417M6.49815 15.6882L9.53077 13.869L9.53083 13.8689L9.53099 13.8688C9.53108 13.8688 9.53117 13.8687 9.53126 13.8687L9.56149 13.9191L9.56166 13.9193L9.56198 13.9199M6.49815 15.6882L6.39417 15.5153L6.39396 15.5149L6.35878 15.4564L6.28978 15.3417M9.56198 13.9199V13.8494C9.62051 13.8111 9.67406 13.7666 9.72188 13.7171L10.2211 13.4565L10.2211 13.4565L10.2488 13.442C10.329 13.4002 10.4099 13.3806 10.4868 13.3806C10.5284 13.3806 10.5713 13.3857 10.6149 13.3965C10.615 13.3966 10.615 13.3966 10.615 13.3966C10.6152 13.3966 10.6153 13.3966 10.6154 13.3967L10.7131 13.0043M9.56198 13.9199L10.2511 13.5065C10.3567 13.4431 10.4803 13.4246 10.6005 13.4545C10.7201 13.4843 10.821 13.5591 10.8844 13.6649C10.9479 13.7708 10.9664 13.8949 10.9366 14.0143M10.7131 13.0043C10.7131 13.0043 10.7131 13.0043 10.7131 13.0043M10.7131 13.0043C10.9523 13.064 11.1556 13.215 11.2823 13.426L11.3334 13.3954M10.7131 13.0043L10.7276 12.9464M10.7131 13.0043L10.6151 13.3966C10.7508 13.4305 10.8633 13.5139 10.9354 13.634C10.9354 13.6341 10.9355 13.6342 10.9355 13.6342C10.9355 13.6342 10.9355 13.6342 10.9355 13.6343C11.0078 13.755 11.0282 13.8934 10.9944 14.0286L10.9943 14.0288L10.9366 14.0143M10.7131 13.0043C10.713 13.0043 10.713 13.0042 10.7129 13.0042L10.7124 13.0041C10.6407 12.9863 10.568 12.9772 10.4957 12.9765M10.7131 13.0043L10.7276 12.9464M10.2755 15.1096L10.5371 14.9527L10.8068 15.1118C10.8876 15.1594 10.9487 15.2191 10.99 15.2881L10.9901 15.2883C10.9902 15.2884 10.9902 15.2885 10.9903 15.2886L10.9393 15.3192M10.2755 15.1096L11.0493 15.6832C11.083 15.5475 11.0625 15.4092 10.9903 15.2886L10.9393 15.3192M10.2755 15.1096L10.3062 15.1608M10.2755 15.1096L10.2755 15.1096L10.3062 15.1608M10.9393 15.3192C10.8083 15.1009 10.5241 15.0299 10.3062 15.1608M10.9393 15.3192C11.003 15.425 11.0215 15.5493 10.9917 15.6688L10.3062 15.1608M11.3815 15.0389C11.3838 15.0425 11.386 15.0461 11.3881 15.0498L11.3815 15.0389ZM11.3815 15.0389C11.3659 15.0511 11.3499 15.0631 11.3338 15.0747C11.3348 15.0764 11.3359 15.0782 11.337 15.08L11.3815 15.0389ZM11.3093 14.3311C11.3427 14.267 11.3688 14.1986 11.3868 14.1269L11.3093 14.3311ZM11.3093 14.3311C11.326 14.3415 11.3425 14.3522 11.3588 14.3633C11.3961 14.294 11.425 14.2197 11.4445 14.1412C11.5083 13.8862 11.4688 13.6214 11.3334 13.3954M11.3093 14.3311L11.3868 14.1268C11.4465 13.8876 11.4089 13.6373 11.2825 13.4264L11.2823 13.4261C11.2823 13.4261 11.2823 13.426 11.2823 13.426L11.3334 13.3954M11.3334 13.3954C11.1981 13.1697 10.9829 13.0102 10.7276 12.9464M10.7276 12.9464L10.4905 12.9165M10.4905 12.9165C10.4926 12.9365 10.4944 12.9566 10.4957 12.9765M10.4905 12.9165C10.4893 12.9165 10.488 12.9165 10.4868 12.9165C10.3299 12.9165 10.1757 12.9567 10.034 13.0307M10.4905 12.9165L10.034 13.0307M10.4957 12.9765C10.4965 12.9874 10.4971 12.9983 10.4976 13.0091L10.4868 13.0096L10.1987 13.023M10.4957 12.9765C10.4928 12.9765 10.4898 12.9765 10.4868 12.9765C10.3889 12.9766 10.2918 12.9923 10.1987 13.023M10.1987 13.023L10.034 13.0307M10.1987 13.023C10.1515 13.0386 10.1053 13.0582 10.0606 13.0815C10.0443 13.09 10.0283 13.099 10.0125 13.1084L10.0123 13.1085L9.97934 13.1283M10.034 13.0307L9.76956 13.2542L9.76965 13.2541L9.95294 13.3C9.95293 13.3001 9.95292 13.3001 9.95291 13.3001C9.96722 13.2431 9.97597 13.1856 9.97934 13.1283M10.034 13.0307L9.96319 12.8949M10.034 13.0307C10.0267 12.8726 9.98501 12.7169 9.90502 12.5779C9.88683 12.586 9.86881 12.5944 9.85097 12.6032M9.97934 13.1283C9.98122 13.0965 9.98143 13.0648 9.98001 13.0332C9.97792 12.9866 9.97229 12.9404 9.96319 12.8949M9.97934 13.1283L9.96319 12.8949M9.96319 12.8949L9.81931 12.6193C9.8298 12.6138 9.84035 12.6085 9.85097 12.6032M9.96319 12.8949L9.81443 12.5463C9.82734 12.5649 9.83952 12.5839 9.85097 12.6032M9.96319 12.8949C9.9428 12.7929 9.90503 12.6944 9.85097 12.6032M11.0426 14.7121L11.1219 14.5776C11.0876 14.6098 11.0506 14.6394 11.0113 14.6663C10.9962 14.6766 10.9807 14.6865 10.9649 14.696L10.9647 14.6961L10.9312 14.7163L11.0426 14.7121ZM3.63179 12.5525L3.57903 12.5247C3.56934 12.5422 3.54519 12.5857 3.50952 12.6499C3.50069 12.6658 3.49115 12.683 3.48095 12.7014C3.49914 12.7105 3.51748 12.7184 3.53585 12.7253C3.56722 12.6688 3.5992 12.6112 3.63179 12.5525ZM7.77877 17.8231C7.77872 17.8231 7.77867 17.8232 7.77863 17.8232L7.77877 17.8231Z" fill="#4CAF4F" stroke="#4CAF4F" stroke-width="0.928093"/>
<path d="M19.4805 13.3886L19.4805 13.3886L19.4805 13.3886ZM19.4805 13.3886C19.3833 13.2144 19.3872 12.9999 19.4902 12.8282L19.4805 13.3886ZM13.7389 12.9763C13.6664 12.9769 13.5935 12.9861 13.5216 13.0041L13.7389 12.9763ZM13.7389 12.9763C13.7403 12.9564 13.742 12.9364 13.7442 12.9164L13.7389 12.9763ZM19.0629 13.714L19.0235 13.643L19.0629 13.714ZM17.9447 15.3415C17.9446 15.3415 17.9445 15.3414 17.9444 15.3413L17.9446 15.3414L17.9447 15.3415ZM16.4559 17.8235C16.4557 17.8234 16.4556 17.8233 16.4555 17.8233L16.4559 17.8235ZM16.4554 17.8232L16.4555 17.8233L16.4554 17.8232Z" fill="#4CAF4F" stroke="#4CAF4F" stroke-width="0.928093"/>
</svg>
