<svg width="33" height="31" viewBox="0 0 33 31" fill="none" xmlns="http://www.w3.org/2000/svg">
<g filter="url(#filter0_d_211_2349)">
<path d="M27.7674 26.3839V23.5997C27.7674 22.1228 27.1807 20.7064 26.1364 19.6621C25.0921 18.6178 23.6757 18.0311 22.1988 18.0311H20.8067C20.4375 18.0311 20.0834 17.8844 19.8223 17.6234C19.5612 17.3623 19.4146 17.0082 19.4146 16.639V9.67827C19.4146 8.93984 19.1212 8.23164 18.5991 7.70949C18.0769 7.18734 17.3687 6.894 16.6303 6.894C15.8918 6.894 15.1836 7.18734 14.6615 7.70949C14.1393 8.23164 13.846 8.93984 13.846 9.67827V22.2075L10.5049 17.7527C10.2455 17.4069 9.90922 17.1262 9.52261 16.9329C9.136 16.7396 8.70969 16.639 8.27744 16.639H7.67325C6.46905 16.639 5.49316 17.6149 5.49316 18.8191C5.49316 19.2144 5.60036 19.6028 5.80361 19.9411L9.66958 26.3839M16.6303 2.71758V1.32544V2.71758ZM24.9831 11.0704H26.3752H24.9831ZM6.8853 11.0704H8.27744H6.8853ZM10.1471 4.58722L9.16284 3.60298L10.1471 4.58722ZM23.1135 4.58722L24.0977 3.60298L23.1135 4.58722Z" fill="#4CAF4F"/>
<path d="M27.7674 26.3839V23.5997C27.7674 22.1228 27.1807 20.7064 26.1364 19.6621C25.0921 18.6178 23.6757 18.0311 22.1988 18.0311H20.8067C20.4375 18.0311 20.0834 17.8844 19.8223 17.6234C19.5612 17.3623 19.4146 17.0082 19.4146 16.639V9.67827C19.4146 8.93984 19.1212 8.23164 18.5991 7.70949C18.0769 7.18734 17.3687 6.894 16.6303 6.894V6.894C15.8918 6.894 15.1836 7.18734 14.6615 7.70949C14.1393 8.23164 13.846 8.93984 13.846 9.67827V22.2075L10.5049 17.7527C10.2455 17.4069 9.90922 17.1262 9.52261 16.9329C9.136 16.7396 8.70969 16.639 8.27744 16.639H7.67325C6.46905 16.639 5.49316 17.6149 5.49316 18.8191C5.49316 19.2144 5.60036 19.6028 5.80361 19.9411L9.66958 26.3839M16.6303 2.71758V1.32544M24.9831 11.0704H26.3752M6.8853 11.0704H8.27744M10.1471 4.58722L9.16284 3.60298M23.1135 4.58722L24.0977 3.60298" stroke="#4CAF4F" stroke-width="1.39214" stroke-linecap="round" stroke-linejoin="round"/>
</g>
<defs>
<filter id="filter0_d_211_2349" x="0.797119" y="0.629395" width="31.6664" height="34.4507" filterUnits="userSpaceOnUse" color-interpolation-filters="sRGB">
<feFlood flood-opacity="0" result="BackgroundImageFix"/>
<feColorMatrix in="SourceAlpha" type="matrix" values="0 0 0 0 0 0 0 0 0 0 0 0 0 0 0 0 0 0 127 0" result="hardAlpha"/>
<feOffset dy="4"/>
<feGaussianBlur stdDeviation="2"/>
<feComposite in2="hardAlpha" operator="out"/>
<feColorMatrix type="matrix" values="0 0 0 0 0 0 0 0 0 0 0 0 0 0 0 0 0 0 0.25 0"/>
<feBlend mode="normal" in2="BackgroundImageFix" result="effect1_dropShadow_211_2349"/>
<feBlend mode="normal" in="SourceGraphic" in2="effect1_dropShadow_211_2349" result="shape"/>
</filter>
</defs>
</svg>
